<svg version="1.1" xmlns="http://www.w3.org/2000/svg" xmlns:xlink="http://www.w3.org/1999/xlink" width="36.9648" height="63.71889" viewBox="0,0,36.9648,63.71889"><g transform="translate(-222.12276,-149.24435)"><g data-paper-data="{&quot;isPaintingLayer&quot;:true}" fill="#ff6666" fill-rule="nonzero" stroke="none" stroke-width="0.5" stroke-linecap="butt" stroke-linejoin="miter" stroke-miterlimit="10" stroke-dasharray="" stroke-dashoffset="0" style="mix-blend-mode: normal"><path d="M247.4344,208.53684c0.38552,1.73494 0.36712,4.4264 -2.33249,4.4264c-2.33296,0 -2.59933,-2.12592 -2.59933,-3.72861c0,-3.23293 -1.17,-7.40278 -2.5713,-10.96878c-1.65218,2.15586 -3.57808,4.28418 -4.44945,6.75015c-0.46165,1.30647 -0.68363,5.78744 -1.50967,6.61349c-1.66667,1.66667 -2.70833,1.66667 -4.375,0c-0.93222,-0.93222 -0.10412,-3.49563 0.19103,-4.57694c1.23723,-4.53278 2.85797,-8.16979 5.6021,-11.99071c0.16219,-0.22583 0.46002,-0.70518 0.83126,-1.26923c0.24778,-2.33647 0.27915,-4.83963 0.37723,-7.13682c-1.13199,1.75854 -2.40201,3.48354 -3.09283,5.01137c-0.31126,0.6884 -0.8273,3.0003 -1.41143,3.38972c-0.69877,0.46585 -1.56665,0.96143 -2.39016,0.79673c-5.04476,-1.00893 1.77996,-10.88344 2.69769,-12.48229c0.17702,-0.30839 0.44649,-1.02649 0.78283,-1.79456l-0.4687,-0.07812l-0.24874,-0.10815l-0.26875,-0.03665l-0.73313,-0.29325l-0.02539,-0.01834l-0.03092,-0.00499l-1.02639,-0.43988l-0.13692,-0.10406l-0.16453,-0.05007l-0.73314,-0.43989l-0.12053,-0.12053l-0.15496,-0.07102l-0.73314,-0.58651l-0.00001,-0.00001h-0.00001l-0.73313,-0.58651l-0.08531,-0.11197l-0.12071,-0.07243l-0.73314,-0.73314l-0.03464,-0.05773l-0.05583,-0.03762l-1.31965,-1.46628l-0.08605,-0.16217l-0.13584,-0.12349l-0.58651,-0.87976l-0.0296,-0.08287l-0.06089,-0.06353l-1.17302,-2.05278l-0.06742,-0.2397l-0.13368,-0.21007l-0.43989,-1.31965l-0.01212,-0.15751l-0.06763,-0.14277l-0.29325,-1.46628l0.01184,-0.24872l-0.06039,-0.24157v-1.31965l0.03079,-0.12315l-0.01838,-0.1256l0.14662,-1.46628l0.0712,-0.19835l0.00448,-0.2107l0.43989,-1.6129l0.05151,-0.09183l0.01091,-0.10473l0.58651,-1.6129l0.05561,-0.08239l0.01796,-0.09777l0.73314,-1.6129l0.0578,-0.07272l0.02337,-0.0899l0.87976,-1.6129l0.05835,-0.06335l0.02724,-0.08171l2.05279,-3.22581l0.19973,-0.18949l0.14165,-0.23608l1.31965,-1.31965l0.13547,-0.08128l0.09745,-0.12434l1.31965,-1.02639l0.27907,-0.12331l0.24043,-0.18783l1.31965,-0.58651l0.08743,-0.0153l0.07357,-0.04966l1.6129,-0.58651l0.21249,-0.02213l0.19465,-0.08806l1.6129,-0.29325l0.08824,0.00575l0.08289,-0.03079l1.31964,-0.14663l0.02547,0.00344l0.02427,-0.00847l1.06884,-0.09717l0.10692,-0.18711l1.25,-0.3125h0.42342l0.02337,-0.01558l0.0701,0.01558h0.06962l0.5573,0.13932l0.03288,0.00731h2.78225l0.24157,0.06039l0.24872,-0.01184l0.73314,0.14663l0.30178,0.14295l0.32597,0.07244l0.25028,0.12514l0.50896,0.08483l0.34247,0.1489l0.36455,0.08101l0.58652,0.29325l0.07444,0.0638l0.09379,0.02855l0.56136,0.33682l0.54715,0.21886l0.26745,0.19316l0.30406,0.12803l0.40617,0.30463l0.38488,0.19244l0.17253,0.14788l0.20942,0.08818l0.48336,0.36251l0.62256,0.37354l0.0928,0.0928l0.12095,0.05093l0.58652,0.43989l0.58651,0.43988l0.11347,0.13965l0.1543,0.09258l0.58651,0.58651l0.5865,0.58651l1.75952,1.75952l0.12812,0.21352l0.18425,0.1675l0.87976,1.31965l0.08795,0.24627l0.15311,0.212l0.29325,0.73314l0.03125,0.22916l0.09901,0.20902l0.11611,0.58053l0.24404,0.73211l0.03082,0.40069l0.09747,0.38988v4.69208l-0.04364,0.17457l0.01852,0.17899l-0.14663,1.02639l-0.04952,0.12154v0.13124l-0.26198,1.04791l-0.12839,0.89873l-0.12447,0.30552l-0.05253,0.3257l-0.37746,0.88076l-0.24973,0.87404l-0.11697,0.20274l-0.05078,0.22849l-0.43989,0.87977l-0.10281,0.11994l-0.05313,0.14877l-0.50017,0.75026l-0.37028,0.74056l-0.17308,0.20193l-0.11081,0.24177l-0.58651,0.73313l-0.58651,0.73314l-0.25222,0.19217l-0.19995,0.2461l-0.55527,0.41645l-0.70265,0.56211l-0.15496,0.07102l-0.12053,0.12053l-0.73314,0.43989l-0.26339,0.08016l-0.23228,0.14781l-0.87976,0.29325l-0.05553,0.00427l-0.04824,0.02783l-2.05279,0.58651l-0.17297,0.00577l-0.16027,0.0653l-1.02638,0.14663l-0.02244,-0.00232l-0.02103,0.00814l-1.17303,0.14663l-1.17302,0.14663l-0.15683,-0.01901l-0.15326,0.03831h-1.09956l-0.63367,0.03728c1.40638,2.01577 2.59486,4.27044 2.71144,4.54244c0.16018,0.37375 0.31227,0.75104 0.45678,1.13112c0.32361,0.85115 1.81265,3.77889 1.3288,4.7466c-1.04992,2.09987 -2.08678,2.45941 -3.05768,1.88272c2.05256,4.17913 2.52887,10.04535 3.45744,14.22414zM242.68319,154.84063l-0.03208,0.02139l-0.07392,-0.01643c-0.02188,0.00057 -0.04382,0.00085 -0.06584,0.00085c-0.29679,0 -0.58149,-0.05172 -0.8456,-0.14663h-1.97355l-1.47507,0.1341l-1.20879,0.13431l-1.31953,0.23991l-1.33237,0.4845l-0.96155,0.42736l-0.95602,0.74357l-1.01554,1.01554l-1.86022,2.92319l-0.79587,1.4591l-0.65522,1.44147l-0.51796,1.4244l-0.35781,1.31197l-0.11345,1.13453v0.94742l0.21418,1.07091l0.31238,0.93715l0.46369,0.81146l0.54379,0.95163l0.43816,0.65724l1.15436,1.28263l0.58875,0.58875l0.62501,0.50001l0.60183,0.48146l0.44346,0.26608l0.84243,0.36104l0.45391,0.18157l0.58453,0.09742l0.99762,0.14252l1.02638,0.14663l0.85051,0.1215h3.26792l2.41932,-0.14232l0.07388,0.01392l0.07293,-0.01823h1.01738l1.01857,-0.12732l1.15127,-0.14391l0.83563,-0.11938l1.83636,-0.52467l0.56788,-0.18929l0.35363,-0.21218l0.60184,-0.48147l0.03645,-0.01671l0.02528,-0.03112l0.3326,-0.24945l0.38824,-0.4853l0.42106,-0.52632l0.32144,-0.64288l0.10281,-0.11994l0.05313,-0.14877l0.50017,-0.75026l0.26637,-0.53273l0.22942,-0.80298l0.08034,-0.13926l0.0256,-0.15872l0.30963,-0.72249l0.09987,-0.69908l0.04952,-0.12154v-0.13124l0.26198,-1.04791l0.10327,-0.72284v-4.10871l-0.16496,-0.49489l-0.01212,-0.1575l-0.06763,-0.14276l-0.10162,-0.50807l-0.11134,-0.27834l-0.59805,-0.89708l-1.58449,-1.58449l-0.5865,-0.58651l-0.46087,-0.46087l-0.44437,-0.33328l-0.48335,-0.36251l-0.62255,-0.37353l-0.09279,-0.09279l-0.12095,-0.05092l-0.40619,-0.30463l-0.38489,-0.19245l-0.17253,-0.14789l-0.20943,-0.08818l-0.32199,-0.24149l-0.42614,-0.17046l-0.1641,-0.11852l-0.19366,-0.05894l-0.65079,-0.39048l-0.16441,-0.0822l-0.50897,-0.08483l-0.34248,-0.1489l-0.36456,-0.08101l-0.28706,-0.14353l-0.12236,-0.02447c-0.35604,0.24237 -0.77792,0.39521 -1.23327,0.42612z"/></g></g></svg>